<?xml version="1.0" encoding="UTF-8" standalone="no"?>
<!-- Created with Inkscape (http://www.inkscape.org/) -->

<svg
   width="187.48624mm"
   height="179.32755mm"
   viewBox="0 0 187.48624 179.32755"
   version="1.1"
   id="svg5"
   xmlns="http://www.w3.org/2000/svg"
   xmlns:svg="http://www.w3.org/2000/svg">
  <defs
     id="defs2" />
  <g
     id="layer1"
     transform="translate(-15.336014,-58.836203)">
    <path
       id="path234"
       style="fill:#000000;stroke-width:0.299416;stroke-linejoin:round;paint-order:stroke fill markers"
       d="M 104.99979,58.836202 A 89.663994,89.663994 0 0 0 15.336015,148.49998 h 19.953304 a 69.710808,69.710808 0 0 1 69.710471,-69.710991 69.710808,69.710808 0 0 1 49.721,20.919654 l -16.89871,9.816967 54.63439,31.34641 -0.17002,-62.987368 -19.89336,11.556917 a 89.663994,89.663994 0 0 0 -67.3933,-30.605367 z m 77.86915,89.663778 a 69.710808,69.710808 0 0 1 -69.71047,69.71099 69.710808,69.710808 0 0 1 -49.720998,-20.91965 l 16.89871,-9.81698 -54.634392,-31.3464 0.170016,62.98737 19.893359,-11.55692 a 89.663994,89.663994 0 0 0 67.393305,30.60537 89.663994,89.663994 0 0 0 89.66378,-89.66378 z" />
  </g>
</svg>
